<?xml version="1.0" encoding="utf-8"?>
<!-- Generator: Adobe Illustrator 19.0.0, SVG Export Plug-In . SVG Version: 6.00 Build 0)  -->
<svg version="1.1" id="Bold" xmlns="http://www.w3.org/2000/svg" xmlns:xlink="http://www.w3.org/1999/xlink" x="0px" y="0px"
	 viewBox="-41 164.9 512 512" style="enable-background:new -41 164.9 512 512;" xml:space="preserve">
<style type="text/css">
	.st0{fill:#953E46;}
</style>
<path class="st0" d="M470.9,676.9L470.9,676.9l0.1,0V489.1c0-91.9-19.8-162.6-127.2-162.6c-51.6,0-86.3,28.3-100.4,55.2h-1.5V335
	H140.1v341.8h106V507.6c0-44.6,8.4-87.7,63.6-87.7c54.4,0,55.2,50.9,55.2,90.5v166.4L470.9,676.9z"/>
<path class="st0" d="M-32.6,335.1H73.6v341.8H-32.6L-32.6,335.1z"/>
<path class="st0" d="M20.5,164.9c-33.9,0-61.5,27.5-61.5,61.5s27.5,62.1,61.5,62.1S82,260.3,82,226.4
	C81.9,192.4,54.4,164.9,20.5,164.9z"/>
</svg>
